<svg version="1.1" id="Layer_1" xmlns="http://www.w3.org/2000/svg" xmlns:xlink="http://www.w3.org/1999/xlink" x="0px" y="0px"
	 width="100%" viewBox="0 0 512 512" enable-background="new 0 0 512 512" xml:space="preserve">
<path fill="#000000" opacity="1.000000" stroke="none" 
	d="
M269.525208,298.518066 
	C254.612808,295.807861 240.228607,298.328217 225.811020,299.241608 
	C222.878128,299.427399 222.304169,301.222107 222.297531,303.643402 
	C222.252319,320.137299 221.644516,336.647308 222.658997,353.118042 
	C223.510742,366.946533 223.773041,380.805481 222.970398,394.574158 
	C222.519775,402.303955 216.232132,408.033112 211.578217,414.007751 
	C210.088379,415.920380 208.374466,419.186768 205.316925,418.076843 
	C202.034225,416.885223 202.867981,413.295471 202.914795,410.595520 
	C203.302155,388.262909 202.262466,365.955444 201.761581,343.640717 
	C201.469360,330.622131 202.784500,317.682709 203.023514,304.696594 
	C203.060638,302.679321 203.361435,300.689240 204.421387,298.928223 
	C207.253067,294.223511 210.181381,289.592957 213.280396,285.044037 
	C217.748306,278.485870 223.646027,274.882477 231.391006,274.048004 
	C250.115356,272.030548 268.907166,270.195343 287.666046,272.797058 
	C311.586517,276.114685 328.949615,294.786011 331.135223,318.804138 
	C333.993713,350.216248 326.379089,378.838379 308.266052,404.735016 
	C303.475800,411.583740 298.646301,418.303223 292.217560,423.718933 
	C291.204987,424.571869 290.196442,425.472321 289.053833,426.116150 
	C287.903625,426.764252 286.558167,427.286743 285.280823,426.371216 
	C283.721222,425.253357 284.161682,423.702881 284.690033,422.291016 
	C286.531403,417.370392 289.500854,412.890320 293.123810,409.409302 
	C307.010223,396.067017 309.430908,378.752136 310.847900,361.025513 
	C311.485321,353.051208 311.390839,345.026428 310.565491,337.058746 
	C308.373779,315.901337 290.085693,301.325012 272.398743,299.107452 
	C271.575439,299.004272 270.769348,298.763733 269.525208,298.518066 
z"/>
<path fill="#000000" opacity="1.000000" stroke="none" 
	d="
M272.896942,210.361786 
	C276.733032,194.822235 285.321350,182.462601 295.206238,170.806793 
	C299.632660,165.587372 304.758484,161.118622 310.390411,156.212479 
	C305.688477,152.702499 301.231628,149.393753 296.795563,146.057358 
	C294.003387,143.957352 291.333252,141.681030 288.441406,139.731491 
	C285.608917,137.821960 285.466614,135.701599 287.028961,132.921997 
	C290.626404,126.521622 294.915405,120.613762 299.608276,114.996727 
	C302.273743,111.806381 304.877502,112.694862 307.762329,115.075966 
	C319.465576,124.735649 331.778687,133.549637 345.399323,140.333160 
	C354.615875,144.923325 363.657440,149.929993 373.730804,152.630112 
	C379.649323,154.216522 380.130371,155.623474 376.942596,161.041092 
	C373.402039,167.058228 369.782715,173.043365 364.522064,177.816574 
	C362.350830,179.786606 360.182800,180.134430 357.240967,179.432953 
	C341.811737,175.753876 326.010864,175.967270 310.576752,178.027298 
	C292.000519,180.506714 290.351074,189.308502 294.317291,207.122864 
	C296.970245,219.038605 305.523499,225.992279 318.182892,228.216446 
	C335.948761,231.337799 353.538544,232.178787 371.121460,227.686340 
	C375.458588,226.578217 379.624481,224.803268 383.875732,223.354340 
	C385.862091,222.677353 387.852753,222.404114 389.363434,224.281738 
	C390.738586,225.990860 389.999756,227.676880 389.162140,229.402252 
	C384.637360,238.722870 378.758057,245.972885 368.346344,250.046860 
	C345.611755,258.942688 322.593597,257.707428 299.482880,253.692978 
	C279.842010,250.281265 270.684540,229.802643 272.547333,215.777924 
	C272.766052,214.131317 272.751587,212.453720 272.896942,210.361786 
z"/>
<path fill="#000000" opacity="1.000000" stroke="none" 
	d="
M243.406036,143.362335 
	C235.719193,164.002655 224.925659,182.928055 218.084579,203.488068 
	C214.088364,215.498230 210.439560,227.570389 203.563889,238.393326 
	C200.256241,243.599823 196.958359,248.809113 192.989334,253.507050 
	C189.754944,257.335419 186.552200,257.119080 184.272629,252.718567 
	C174.335266,233.535095 163.249527,214.910248 157.593887,193.713135 
	C154.025269,180.338135 146.917877,168.289566 141.293274,155.696899 
	C137.792999,147.860306 136.362427,140.374451 141.555450,132.748840 
	C144.268021,128.765594 146.692200,124.592514 150.210617,121.200226 
	C153.410843,118.114716 155.320435,118.287300 156.619705,122.520378 
	C160.198227,134.179138 165.651443,145.050095 170.231506,156.287796 
	C173.990479,165.510880 179.613098,173.533646 185.174561,181.577820 
	C189.044022,187.174683 192.187149,193.317719 196.976166,198.271439 
	C197.659164,198.977921 198.147797,199.924072 199.838882,200.066467 
	C202.901123,196.563644 204.108887,191.839417 205.661942,187.398895 
	C213.378357,165.335983 223.978928,145.007553 240.373337,128.024277 
	C244.068893,124.195969 247.496811,120.110275 251.153595,116.242973 
	C252.219025,115.116211 253.528931,113.322662 255.327774,114.753113 
	C256.926056,116.024078 256.110626,117.894691 255.295151,119.333031 
	C250.942734,127.009979 246.971191,134.870911 243.406036,143.362335 
z"/>
</svg>